<svg width="642" height="202" viewBox="0 0 642 202" fill="none" xmlns="http://www.w3.org/2000/svg">
<g clip-path="url(#clip0_553_2291)">
<path d="M358.809 27.5611L358.809 27.5611L281.412 43.5097C281.142 43.5653 280.881 43.3593 280.881 43.0712V18.397C280.881 18.1819 281.032 18.0005 281.235 17.9584C281.235 17.9584 281.235 17.9584 281.235 17.9584L358.632 2.00989C358.902 1.95433 359.163 2.16032 359.163 2.44845V27.1226C359.163 27.3384 359.013 27.5192 358.809 27.5611Z" stroke="white" stroke-width="3"/>
<path d="M175.45 85.3023L175.45 85.3026C176.378 87.0113 178.234 87.3604 179.546 87.0768C180.866 86.7916 182.464 85.6671 182.464 83.6286V74.7149H229.229V79.7287C229.229 82.5286 231.684 83.9543 233.496 84.3481C235.333 84.7471 238.035 84.4603 239.419 82.257C252.308 61.7391 278.014 51.4031 320.128 51.4031C362.175 51.4031 387.946 61.8633 400.859 82.4679L400.86 82.4682C402.242 84.6731 404.944 84.9611 406.781 84.5626C408.594 84.1693 411.049 82.7438 411.049 79.9434V75.1632C411.049 74.9124 411.251 74.7157 411.492 74.7157H457.372C457.613 74.7157 457.815 74.9124 457.815 75.1632V79.7287C457.815 82.5283 460.269 83.9538 462.082 84.3474C463.919 84.7464 466.62 84.4594 468.004 82.2567L466.323 81.2004L468.004 82.2566C480.894 61.7392 506.599 51.4031 548.713 51.4031C580.992 51.4031 603.697 57.5779 618.32 69.75C632.862 81.8543 639.783 100.209 639.783 125.49C639.783 150.879 632.861 169.342 618.315 181.525C603.692 193.774 580.989 200.001 548.713 200.001C506.608 200.001 480.903 189.58 468.011 168.947L468.01 168.946C466.63 166.738 463.925 166.448 462.087 166.845C460.274 167.237 457.815 168.662 457.815 171.464V197.433C457.815 197.683 457.613 197.88 457.372 197.88H411.492C411.251 197.88 411.049 197.683 411.049 197.433V171.249C411.049 168.446 408.59 167.021 406.776 166.63C404.938 166.233 402.232 166.523 400.854 168.735C387.936 189.456 362.165 200.001 320.128 200.001C278.023 200.001 252.318 189.58 239.425 168.947C238.045 166.737 235.34 166.448 233.502 166.845C231.688 167.237 229.229 168.662 229.229 171.464V197.879H182.464V167.582C182.464 165.54 180.861 164.416 179.541 164.133C178.228 163.851 176.369 164.203 175.444 165.917C162.996 188.988 136.003 199.998 93.0699 199.998C60.6832 199.998 37.983 193.822 23.3881 181.602C8.87304 169.448 2 150.989 2 125.487C2 100.094 8.87137 81.7429 23.3833 69.6681C37.9782 57.5242 60.6801 51.4004 93.0699 51.4004C135.897 51.4004 162.971 62.3226 175.45 85.3023ZM320.128 157.374C336.541 157.374 346.702 153.781 352.72 147.722C358.751 141.65 360.202 133.52 360.202 125.49C360.202 117.573 358.807 109.539 352.793 103.542C346.798 97.5644 336.636 94.0303 320.128 94.0303C303.629 94.0303 293.465 97.508 287.467 103.459C281.447 109.432 280.054 117.473 280.054 125.49C280.054 133.62 281.503 141.757 287.539 147.805C293.56 153.838 303.723 157.374 320.128 157.374ZM548.713 157.374C565.126 157.374 575.287 153.781 581.305 147.722C587.336 141.65 588.787 133.52 588.787 125.49C588.787 117.573 587.392 109.539 581.378 103.542C575.383 97.5644 565.22 94.0303 548.713 94.0303C532.213 94.0303 522.049 97.508 516.052 103.459C510.032 109.432 508.639 117.473 508.639 125.49C508.639 133.62 510.088 141.757 516.124 147.805C522.145 153.838 532.308 157.374 548.713 157.374ZM179.013 135.965C180.923 135.965 182.464 134.415 182.464 132.511V118.463C182.464 116.559 180.923 115.009 179.013 115.009H130.914C129.475 108.081 125.816 102.756 119.536 99.2219C113.254 95.6856 104.502 94.0274 93.0699 94.0274C76.5705 94.0274 66.4065 97.505 60.4088 103.456C54.3888 109.43 52.9959 117.47 52.9959 125.487C52.9959 133.618 54.4448 141.754 60.4812 147.803C66.5018 153.835 76.6649 157.371 93.0699 157.371C104.513 157.371 113.273 155.659 119.56 152.037C125.841 148.419 129.487 142.988 130.919 135.965H179.013ZM130.991 115.396C130.991 115.395 130.991 115.395 130.991 115.394C130.991 115.395 130.991 115.395 130.991 115.396L130.991 115.396Z" stroke="white" stroke-width="3"/>
<path d="M587.218 2.00989L587.218 2.00986C587.487 1.9544 587.749 2.16055 587.749 2.44845V27.1226C587.749 27.3375 587.598 27.519 587.394 27.5611L587.394 27.5611L509.997 43.5097C509.728 43.5653 509.466 43.3594 509.466 43.0712V18.397C509.466 18.1812 509.617 18.0004 509.82 17.9584L509.82 17.9584L587.218 2.00989Z" stroke="white" stroke-width="3"/>
<path d="M457.372 32.3262C457.613 32.3262 457.815 32.5229 457.815 32.7737V61.7891C457.815 62.0399 457.613 62.2367 457.372 62.2367H411.492C411.251 62.2367 411.049 62.0399 411.049 61.7891V32.7737C411.049 32.5229 411.251 32.3262 411.492 32.3262H457.372Z" stroke="white" stroke-width="3"/>
<path d="M182.464 32.3262H229.229V62.2367H182.464V32.3262Z" stroke="white" stroke-width="3"/>
</g>
<defs>
<clipPath id="clip0_553_2291">
<rect width="642" height="202" fill="white"/>
</clipPath>
</defs>
</svg>
