<svg xmlns="http://www.w3.org/2000/svg" width="130" height="41" viewBox="0 0 130 41" fill="none">
<g clip-path="url(#clip0_83_546)">
<path d="M56.4712 3.73404C56.4712 3.49825 56.6363 3.29495 56.8662 3.24744L72.5385 0.0103607C72.8453 -0.0530115 73.1327 0.182365 73.1327 0.496962V5.50507C73.1327 5.74088 72.9678 5.94418 72.7378 5.99167L57.0655 9.22877C56.7586 9.29214 56.4712 9.05676 56.4712 8.74217V3.73404Z" fill="black"/>
<path fill-rule="evenodd" clip-rule="evenodd" d="M48.1375 16.4797C47.8371 16.9592 46.8221 16.749 46.8221 16.1825V15.0539C46.8221 14.891 46.6906 14.7589 46.5284 14.7589H36.8363C36.674 14.7589 36.5425 14.891 36.5425 15.0539V16.974C36.5425 17.3008 36.0386 17.4069 35.8832 17.12C33.2467 12.2535 27.5621 10.0267 18.8459 10.0267C5.65378 10.0267 0 15.0168 0 25.4701C0 35.9664 5.65378 40.9994 18.8459 40.9994C27.5847 40.9994 33.2527 38.7542 35.8826 33.8689C36.0374 33.5811 36.5425 33.6869 36.5425 34.014V40.2744C36.5425 40.4374 36.674 40.5694 36.8363 40.5694H46.5284C46.6906 40.5694 46.8221 40.4374 46.8221 40.2744V34.8021C46.8221 34.2352 47.8388 34.0255 48.1383 34.5061C50.8615 38.8747 56.2508 41 64.8235 41C73.3839 41 78.7857 38.8486 81.5135 34.4629C81.8125 33.9819 82.8293 34.1913 82.8293 34.7583V40.0729C82.8293 40.3472 83.0507 40.5696 83.324 40.5696H92.6142C92.8875 40.5696 93.1089 40.3472 93.1089 40.0729V34.8021C93.1089 34.2352 94.1254 34.0256 94.425 34.5061C97.1483 38.8747 102.538 41 111.11 41C124.26 41 129.956 35.9239 129.956 25.4705C129.956 15.0603 124.26 10.0272 111.11 10.0272C102.537 10.0272 97.1474 12.1348 94.4243 16.4796C94.1238 16.959 93.1089 16.7489 93.1089 16.1825V15.2558C93.1089 14.9814 92.8875 14.759 92.6142 14.759H83.324C83.0507 14.759 82.8293 14.9814 82.8293 15.2558V16.226C82.8293 16.7928 81.8141 17.0026 81.5141 16.5229C78.7866 12.1608 73.3846 10.0272 64.8235 10.0272C56.2501 10.0272 50.8606 12.1348 48.1375 16.4797ZM64.8235 31.5361C71.3766 31.5361 72.5331 28.6539 72.5331 25.4705C72.5331 22.3303 71.4196 19.4912 64.8235 19.4912C58.2274 19.4912 57.1137 22.2874 57.1137 25.4705C57.1137 28.697 58.2701 31.5361 64.8235 31.5361ZM118.82 25.4705C118.82 28.6539 117.663 31.5361 111.11 31.5361C104.557 31.5361 103.4 28.697 103.4 25.4705C103.4 22.2874 104.514 19.4912 111.11 19.4912C117.706 19.4912 118.82 22.3303 118.82 25.4705ZM36.5425 26.8957C36.5425 27.0586 36.411 27.1907 36.2488 27.1907H26.4233C26.2779 27.1907 26.155 27.2981 26.1277 27.4416C25.6111 30.1579 23.4187 31.5355 18.8459 31.5355C12.2927 31.5355 11.1362 28.6964 11.1362 25.4701C11.1362 22.2868 12.2499 19.4906 18.8459 19.4906C23.417 19.4906 25.6094 20.8268 26.1271 23.4992C26.1549 23.6423 26.2775 23.7493 26.4228 23.7493H36.2488C36.411 23.7493 36.5425 23.8814 36.5425 24.0443V26.8957Z" fill="black"/>
<path d="M119.42 0.496962C119.42 0.182365 119.132 -0.0530115 118.825 0.0103607L103.153 3.24744C102.923 3.29495 102.758 3.49825 102.758 3.73404V8.74217C102.758 9.05676 103.045 9.29214 103.352 9.22877L119.024 5.99167C119.254 5.94418 119.42 5.74088 119.42 5.50507V0.496962Z" fill="black"/>
<path d="M93.109 6.65224C93.109 6.37787 92.8875 6.15546 92.6143 6.15546H83.324C83.0508 6.15546 82.8293 6.37787 82.8293 6.65224V12.5415C82.8293 12.8159 83.0508 13.0383 83.324 13.0383H92.6143C92.8875 13.0383 93.109 12.8159 93.109 12.5415V6.65224Z" fill="black"/>
<path d="M46.5284 6.1553C46.6906 6.1553 46.8221 6.2874 46.8221 6.45034V12.7431C46.8221 12.906 46.6906 13.0381 46.5284 13.0381H36.8362C36.674 13.0381 36.5425 12.906 36.5425 12.7431V6.45034C36.5425 6.2874 36.674 6.1553 36.8362 6.1553H46.5284Z" fill="black"/>
</g>
<defs>
<clipPath id="clip0_83_546">
<rect width="130" height="41" fill="white"/>
</clipPath>
</defs>
</svg>